<?xml version="1.0" encoding="UTF-8"?>
<!DOCTYPE svg PUBLIC "-//W3C//DTD SVG 1.1//EN" "http://www.w3.org/Graphics/SVG/1.1/DTD/svg11.dtd">
<!-- Creator: CorelDRAW 2020 (64-Bit) -->
<svg xmlns="http://www.w3.org/2000/svg" xml:space="preserve" width="12mm" height="12mm" version="1.1" style="shape-rendering:geometricPrecision; text-rendering:geometricPrecision; image-rendering:optimizeQuality; fill-rule:evenodd; clip-rule:evenodd"
viewBox="0 0 1200 1200"
 xmlns:xlink="http://www.w3.org/1999/xlink"
 xmlns:xodm="http://www.corel.com/coreldraw/odm/2003">
 <defs>
  <style type="text/css">
   <![CDATA[
    .fil1 {fill:none}
    .fil0 {fill:white}
   ]]>
  </style>
 </defs>
 <g id="Слой_x0020_1">
  <metadata id="CorelCorpID_0Corel-Layer"/>
  <path class="fil0" d="M744.49 1129.19l0.01 -915.5 -285.1 0 0.02 915.51 285.07 -0.01zm-102.69 -987.13l0 -69.15 -86.82 -0.01 0.01 69.14 86.81 0.02zm71.63 -104.98l0 104.94 66.92 0.01 35.83 0.01 -0.01 35.83 -0.02 987.17 0 35.79 -35.83 -0.01 -356.75 0.04 -35.78 0 0 -35.83 -0.05 -987.17 0.01 -35.83 35.84 -0.01 59.76 0.01 -0.01 -104.95 0.01 -35.83 35.81 0 158.44 -0.01 35.83 0.01 0 35.83zm-81.28 235.35l0 71.6 71.6 0 -0.02 71.66 -71.58 -0.04 0 71.67 -71.65 0.04 0.02 -71.67 -71.67 -0.01 -0.04 -71.64 71.72 -0.01 0 -71.6 71.62 0z"/>
  <rect class="fil1" x="-1.18" y="1.06" width="1200" height="1200"/>
 </g>
</svg>
