<?xml version="1.0" encoding="UTF-8"?>
<!DOCTYPE svg PUBLIC "-//W3C//DTD SVG 1.1//EN" "http://www.w3.org/Graphics/SVG/1.1/DTD/svg11.dtd">
<!-- Creator: CorelDRAW 2018 (64-Bit) -->
<svg xmlns="http://www.w3.org/2000/svg" xml:space="preserve" width="22px" height="22px" version="1.1" style="shape-rendering:geometricPrecision; text-rendering:geometricPrecision; image-rendering:optimizeQuality; fill-rule:evenodd; clip-rule:evenodd"
viewBox="0 0 22 22"
 xmlns:xlink="http://www.w3.org/1999/xlink">
 <defs>
  <style type="text/css">
   <![CDATA[
    .fil0 {fill:white}
    .fil1 {fill:white;fill-rule:nonzero}
   ]]>
  </style>
 </defs>
 <g id="Слой_x0020_1">
  <metadata id="CorelCorpID_0Corel-Layer"/>
  <g id="_2194518579696">
   <g id="_1536763530768">
    <path class="fil0" d="M3.81 5.44l0.97 0.57c0.14,0.07 0.29,0.08 0.42,0.05 0.14,-0.04 0.26,-0.12 0.33,-0.25 0.08,-0.14 0.09,-0.28 0.06,-0.42l0 0c-0.04,-0.13 -0.13,-0.26 -0.26,-0.33l0 0 -0.98 -0.57 0 0 0 0c-0.13,-0.07 -0.28,-0.08 -0.41,-0.05 -0.14,0.03 -0.26,0.12 -0.34,0.26l0 0c-0.07,0.13 -0.08,0.27 -0.05,0.41 0.04,0.13 0.12,0.25 0.26,0.33l0 0 0 0zm3.41 -2.23l0 0c0.07,0.13 0.2,0.21 0.33,0.24 0.14,0.05 0.28,0.03 0.41,-0.05l0.01 0c0.13,-0.07 0.21,-0.19 0.25,-0.33 0.03,-0.13 0.02,-0.28 -0.05,-0.41l0 0 -0.57 -0.99 0 0c-0.08,-0.12 -0.2,-0.21 -0.33,-0.24 -0.14,-0.05 -0.29,-0.03 -0.41,0.05l-0.01 0c-0.13,0.07 -0.22,0.19 -0.25,0.33 -0.03,0.13 -0.02,0.28 0.05,0.41l0 0 0 0 0.57 0.99zm10.35 2.82l0.99 -0.56 0 0c0.13,-0.08 0.21,-0.2 0.25,-0.34 0.04,-0.13 0.02,-0.28 -0.06,-0.41l0 0c-0.07,-0.13 -0.19,-0.22 -0.33,-0.25l0 0c-0.13,-0.04 -0.28,-0.02 -0.41,0.05l0 0 -0.98 0.57c-0.13,0.08 -0.22,0.2 -0.25,0.33 -0.05,0.13 -0.03,0.29 0.05,0.41l0 0c0.08,0.13 0.2,0.22 0.32,0.25 0.14,0.05 0.29,0.03 0.42,-0.05l0 0zm-3.16 -2.6c0.13,0.07 0.28,0.09 0.42,0.05l0 0c0.12,-0.03 0.25,-0.12 0.32,-0.26l0 0 0.57 -0.97c0.07,-0.14 0.09,-0.28 0.06,-0.42 -0.04,-0.13 -0.12,-0.26 -0.26,-0.33l0 0c-0.13,-0.07 -0.28,-0.09 -0.41,-0.06 -0.14,0.05 -0.26,0.13 -0.34,0.26l-0.56 0.99 0 0c-0.08,0.12 -0.09,0.27 -0.05,0.41 0.03,0.13 0.12,0.25 0.25,0.33l0 0zm-3.31 -0.87c0.16,0 0.29,-0.05 0.39,-0.16 0.1,-0.09 0.16,-0.23 0.16,-0.38l0 -1.13c0,-0.16 -0.06,-0.29 -0.16,-0.39 -0.1,-0.1 -0.23,-0.16 -0.39,-0.16 -0.15,0 -0.29,0.06 -0.38,0.16 -0.11,0.1 -0.17,0.23 -0.17,0.39l0 1.13c0,0.15 0.06,0.29 0.17,0.38 0.09,0.11 0.23,0.16 0.38,0.16z"/>
    <path class="fil1" d="M11.18 6.86c-0.31,0 -0.56,-0.25 -0.56,-0.55 0,-0.31 0.25,-0.57 0.56,-0.57 0.91,0 1.74,0.37 2.34,0.97 0.59,0.6 0.96,1.43 0.96,2.33 0,0.31 -0.25,0.57 -0.55,0.57 -0.32,0 -0.57,-0.26 -0.57,-0.57 0,-0.59 -0.25,-1.14 -0.64,-1.54 -0.39,-0.39 -0.93,-0.64 -1.54,-0.64z"/>
    <path class="fil1" d="M9.54 18.57c-0.3,0.05 -0.59,-0.15 -0.64,-0.46 -0.05,-0.31 0.16,-0.59 0.46,-0.64l3.45 -0.57c0.31,-0.05 0.59,0.16 0.65,0.47 0.05,0.3 -0.16,0.59 -0.47,0.64l-3.45 0.56z"/>
    <path class="fil1" d="M9.54 20.13c-0.3,0.05 -0.59,-0.15 -0.64,-0.46 -0.05,-0.31 0.16,-0.59 0.46,-0.64l3.45 -0.57c0.31,-0.05 0.59,0.15 0.65,0.46 0.05,0.31 -0.16,0.59 -0.47,0.64l-3.45 0.57z"/>
    <path class="fil1" d="M15.95 10.92l-0.73 2.12 -0.73 2.13c-0.09,0.29 -0.32,0.59 -0.58,0.82 -0.26,0.23 -0.58,0.42 -0.88,0.46l-3.21 0.53c-0.54,0.09 -0.9,-0.01 -1.19,-0.27 -0.27,-0.22 -0.39,-0.5 -0.51,-0.87l-1.7 -4.92 0 0c-0.11,-0.29 -0.21,-0.59 -0.27,-0.9 -0.06,-0.32 -0.09,-0.64 -0.09,-0.98 0,-1.41 0.57,-2.68 1.5,-3.62 0.93,-0.92 2.21,-1.49 3.62,-1.49 1.41,0 2.7,0.57 3.62,1.49 0.92,0.93 1.5,2.21 1.5,3.62l0 0c0,0.33 -0.04,0.66 -0.1,0.97 -0.06,0.32 -0.14,0.62 -0.25,0.91l0 0zm-1.98 1.69l0.73 -2.13 0.01 -0.02c0.08,-0.23 0.15,-0.46 0.2,-0.7 0.04,-0.22 0.06,-0.46 0.06,-0.72l0.01 0c0,-1.04 -0.43,-1.99 -1.11,-2.67 -0.7,-0.69 -1.64,-1.12 -2.69,-1.12 -1.05,0 -2,0.43 -2.68,1.12 -0.69,0.68 -1.11,1.63 -1.11,2.67 0,0.26 0.02,0.5 0.07,0.73 0.04,0.24 0.11,0.46 0.2,0.68l0.01 0.04 1.7 4.92c0.06,0.17 0.11,0.29 0.12,0.31 0.02,0.02 0.02,-0.02 0.12,-0.04l3.2 -0.53c0.05,-0.01 0.13,-0.07 0.23,-0.15 0.1,-0.09 0.18,-0.19 0.2,-0.25l0.73 -2.14 0 0z"/>
    <path class="fil1" d="M10.51 21.53c-0.3,0.05 -0.59,-0.16 -0.64,-0.47 -0.04,-0.3 0.16,-0.59 0.46,-0.64l1.52 -0.25c0.31,-0.04 0.59,0.17 0.64,0.47 0.05,0.3 -0.16,0.59 -0.46,0.65l-1.52 0.24z"/>
   </g>
  </g>
 </g>
</svg>
