<?xml version="1.0" encoding="UTF-8"?>
<!DOCTYPE svg PUBLIC "-//W3C//DTD SVG 1.1//EN" "http://www.w3.org/Graphics/SVG/1.1/DTD/svg11.dtd">
<!-- Creator: CorelDRAW 2018 (64-Bit) -->
<svg xmlns="http://www.w3.org/2000/svg" xml:space="preserve" width="22px" height="22px" version="1.1" style="shape-rendering:geometricPrecision; text-rendering:geometricPrecision; image-rendering:optimizeQuality; fill-rule:evenodd; clip-rule:evenodd"
viewBox="0 0 22 22"
 xmlns:xlink="http://www.w3.org/1999/xlink">
 <defs>
  <style type="text/css">
   <![CDATA[
    .fil1 {fill:white}
    .fil0 {fill:white;fill-rule:nonzero}
   ]]>
  </style>
 </defs>
 <g id="Слой_x0020_1">
  <metadata id="CorelCorpID_0Corel-Layer"/>
  <g id="_2194514727760">
   <g id="_1536883872880">
    <path class="fil0" d="M7.42 19.89l7.65 0 0 -15.25 -7.65 0 0 15.25zm7.83 1.69l-8.03 0c-0.83,0 -1.5,-0.67 -1.5,-1.5l0 -15.62c0,-0.83 0.67,-1.51 1.5,-1.51l8.03 0c0.83,0 1.51,0.68 1.51,1.51l0 15.62c0,0.83 -0.68,1.5 -1.51,1.5z"/>
    <path class="fil0" d="M13.7 3.17l-1.16 0 0 -1.52 -2.59 0 0 1.52 -1.17 0 0 -1.65c0,-0.56 0.46,-1.03 1.04,-1.03l2.85 0c0.56,0 1.03,0.47 1.03,1.03l0 1.65z"/>
    <polygon class="fil1" points="10.54,9 11.7,9 11.7,5.99 10.54,5.99 "/>
    <polygon class="fil1" points="9.61,8.07 12.63,8.07 12.63,6.91 9.61,6.91 "/>
   </g>
  </g>
 </g>
</svg>
