<?xml version="1.0" encoding="UTF-8"?>
<!DOCTYPE svg PUBLIC "-//W3C//DTD SVG 1.1//EN" "http://www.w3.org/Graphics/SVG/1.1/DTD/svg11.dtd">
<!-- Creator: CorelDRAW 2018 (64-Bit) -->
<svg xmlns="http://www.w3.org/2000/svg" xml:space="preserve" width="22px" height="22px" version="1.1" style="shape-rendering:geometricPrecision; text-rendering:geometricPrecision; image-rendering:optimizeQuality; fill-rule:evenodd; clip-rule:evenodd"
viewBox="0 0 22 22"
 xmlns:xlink="http://www.w3.org/1999/xlink">
 <defs>
  <style type="text/css">
   <![CDATA[
    .fil0 {fill:#FEFEFE;fill-rule:nonzero}
   ]]>
  </style>
 </defs>
 <g id="Слой_x0020_1">
  <metadata id="CorelCorpID_0Corel-Layer"/>
  <path class="fil0" d="M4.99 0.51l12.17 0c1.22,0 2.33,0.5 3.14,1.3 0.8,0.82 1.31,1.93 1.31,3.15l0 12.16c0,1.22 -0.51,2.34 -1.31,3.15 -0.81,0.8 -1.92,1.3 -3.14,1.3l-12.17 0c-1.22,0 -2.33,-0.5 -3.14,-1.3 -0.8,-0.81 -1.31,-1.93 -1.31,-3.15l0 -12.16c0,-1.22 0.51,-2.33 1.31,-3.15 0.81,-0.8 1.92,-1.3 3.14,-1.3zm-0.12 3.33l12.42 0c0.27,0 0.52,0.11 0.7,0.29 0.18,0.17 0.29,0.43 0.29,0.7l0 12.42c0,0.27 -0.11,0.52 -0.29,0.7 -0.18,0.18 -0.43,0.29 -0.7,0.29l-12.42 0c-0.28,0 -0.53,-0.11 -0.71,-0.29 -0.18,-0.18 -0.29,-0.43 -0.29,-0.7l0 -12.42c0,-0.27 0.11,-0.53 0.29,-0.7 0.18,-0.18 0.43,-0.29 0.71,-0.29zm6.83 1.23l0 11.94 5.34 0 0 -11.94 -5.34 0zm-1.24 11.94l0 -11.94 -5.35 0 0 11.94 5.35 0zm6.7 -14.77l-12.17 0c-0.74,0 -1.42,0.31 -1.91,0.81 -0.49,0.48 -0.8,1.17 -0.8,1.91l0 12.16c0,0.74 0.31,1.43 0.8,1.92 0.49,0.49 1.17,0.8 1.91,0.8l12.17 0c0.74,0 1.42,-0.31 1.92,-0.8 0.49,-0.49 0.79,-1.18 0.79,-1.92l0 -12.16c0,-0.74 -0.3,-1.43 -0.79,-1.91 -0.5,-0.5 -1.18,-0.81 -1.92,-0.81z"/>
 </g>
</svg>
