<?xml version="1.0" encoding="UTF-8"?>
<!DOCTYPE svg PUBLIC "-//W3C//DTD SVG 1.1//EN" "http://www.w3.org/Graphics/SVG/1.1/DTD/svg11.dtd">
<!-- Creator: CorelDRAW 2020 (64-Bit) -->
<svg xmlns="http://www.w3.org/2000/svg" xml:space="preserve" width="12mm" height="12mm" version="1.1" style="shape-rendering:geometricPrecision; text-rendering:geometricPrecision; image-rendering:optimizeQuality; fill-rule:evenodd; clip-rule:evenodd"
viewBox="0 0 1200 1200"
 xmlns:xlink="http://www.w3.org/1999/xlink"
 xmlns:xodm="http://www.corel.com/coreldraw/odm/2003">
 <defs>
  <style type="text/css">
   <![CDATA[
    .fil0 {fill:#FEFEFE;fill-rule:nonzero}
   ]]>
  </style>
 </defs>
 <g id="Слой_x0020_1">
  <metadata id="CorelCorpID_0Corel-Layer"/>
  <g id="icon1.eps">
   <path class="fil0" d="M283.52 234.38l5.04 0.13c14.96,0.32 29.64,-5.5 40.27,-16.11l25.55 -25.47c8.83,-8.83 14.41,-20.42 15.8,-32.71l44.22 44.22 -216.97 216.97 -50.4 -50.4c18.72,0.08 37.06,-7.36 50.61,-20.91l10.99 -11.08c13.51,-13.59 20.74,-31.48 20.53,-50.28l54.36 -54.36zm169.86 9.03l96.36 96.37c2.06,2.06 3.39,4.73 3.86,7.59l-213.31 213.32c-2.71,-0.46 -5.29,-1.71 -7.28,-3.7l-96.6 -96.6 216.97 -216.98zm122.14 159.99l174.02 174.03 -179.1 179.1 -174.03 -174.03 179.11 -179.1zm385.43 729.51l-56.84 -56.84 164.96 -164.97 56.84 56.84 -164.96 164.97zm-95.79 -95.79l-248.66 -248.66 164.96 -164.96 248.66 248.66 -164.96 164.96zm-525.3 -936.98l-25.66 25.66 1.23 28.18 -25.59 25.37 -28.56 -0.62 -90.97 90.96 3.41 16.34c1.08,5.12 -0.49,10.42 -4.2,14.15l-11.05 11.15c-3.55,3.55 -8.64,5.16 -13.58,4.34l-17.68 -2.88 -34.06 34.06c-13.3,13.3 -13.3,34.93 0.01,48.23l200.88 200.89c14.75,14.75 35.44,21.85 57.17,19.23l192.24 192.23c6.79,6.8 15.83,10.68 25.19,11.11l366.68 366.68c14.11,14.12 37.07,14.14 51.22,-0.01l191.67 -191.67c14.17,-14.17 14.12,-37.1 0,-51.21l-366.62 -366.62c-0.47,-9.43 -4.35,-18.48 -11.14,-25.28l-192.1 -192.1c2.67,-20.97 -4.47,-42.38 -19.63,-57.54l-200.63 -200.63c-13.31,-13.31 -34.94,-13.31 -48.23,-0.02z"/>
   <path class="fil0" d="M549.03 555.98c13.82,-13.82 36.36,-13.82 50.17,-0.02 13.88,13.89 13.88,36.43 0.06,50.25 -13.86,13.85 -36.4,13.85 -50.28,-0.03 -13.81,-13.81 -13.81,-36.35 0.05,-50.2zm89.18 89.17c35.31,-35.31 35.3,-92.77 -0.06,-128.13 -35.32,-35.32 -92.79,-35.35 -128.11,-0.03 -35.35,35.36 -35.34,92.83 -0.02,128.15 35.37,35.37 92.83,35.37 128.19,0.01z"/>
   <path class="fil0" d="M199.67 206.61c10.73,-10.73 10.68,-28.17 -0.07,-38.91l-92.52 -92.52c-10.73,-10.73 -28.15,-10.76 -38.88,-0.03 -10.76,10.77 -10.75,28.2 -0.02,38.93l92.53 92.52c10.74,10.74 28.19,10.78 38.96,0.01z"/>
   <path class="fil0" d="M254.71 148.45l0.24 -0.11c3.37,-1.36 6.31,-3.32 8.84,-5.85l6.02 -9.31c2.82,-7.21 2.39,-15.41 -1.13,-22.64l-45.62 -91.36c-6.73,-13.38 -22.55,-19.58 -35.99,-14.19 -6.99,2.75 -12.48,8.42 -15.23,15.53 -2.67,7.14 -2.22,15.29 1.28,22.39l45.55 91.2c6.61,13.46 22.48,19.71 36.04,14.34z"/>
   <path class="fil0" d="M107.47 271.75c7.13,3.57 15.38,3.95 22.31,1.27 3.59,-1.31 6.93,-3.45 9.6,-6.12l5.96 -9.08c5.4,-13.53 -0.88,-29.35 -14.23,-36.03l-91.36 -45.57c-7.07,-3.51 -15.24,-3.98 -22.38,-1.26 -7.1,2.71 -12.7,8.19 -15.42,15.11 -5.48,13.6 0.76,29.48 14.19,36.14l91.33 45.54z"/>
  </g>
 </g>
</svg>
