<?xml version="1.0" encoding="UTF-8"?>
<!DOCTYPE svg PUBLIC "-//W3C//DTD SVG 1.1//EN" "http://www.w3.org/Graphics/SVG/1.1/DTD/svg11.dtd">
<!-- Creator: CorelDRAW 2020 (64-Bit) -->
<svg xmlns="http://www.w3.org/2000/svg" xml:space="preserve" width="12mm" height="12mm" version="1.1" style="shape-rendering:geometricPrecision; text-rendering:geometricPrecision; image-rendering:optimizeQuality; fill-rule:evenodd; clip-rule:evenodd"
viewBox="0 0 1200 1200"
 xmlns:xlink="http://www.w3.org/1999/xlink"
 xmlns:xodm="http://www.corel.com/coreldraw/odm/2003">
 <defs>
  <style type="text/css">
   <![CDATA[
    .fil0 {fill:none}
    .fil1 {fill:white;fill-rule:nonzero}
   ]]>
  </style>
 </defs>
 <g id="Слой_x0020_1">
  <metadata id="CorelCorpID_0Corel-Layer"/>
  <rect class="fil0" x="-1.18" y="1.06" width="1200" height="1200"/>
  <path class="fil1" d="M381.61 191.12l89.15 0 -44.57 -109.31 -44.58 109.31zm6.1 -184.37l76.47 0 129.5 312.93 -77.88 0 -30.03 -72.73 -119.17 0 -30.02 72.73 -78.36 0 129.49 -312.93zm339.66 184.37l89.15 0 -44.57 -109.31 -44.58 109.31zm6.11 -184.37l76.47 0 129.49 312.93 -77.88 0 -30.03 -72.73 -119.17 0 -30.01 72.73 -78.35 0 129.48 -312.93zm-524.75 622.24l89.14 0 -44.58 -109.31 -44.56 109.31zm6.1 -184.37l76.46 0 129.49 312.93 -77.88 0 -30.02 -72.73 -119.16 0 -30.03 72.73 -78.35 0 129.49 -312.93zm339.66 184.37l89.15 0 -44.57 -109.31 -44.58 109.31zm6.1 -184.37l76.48 0 129.48 312.93 -77.87 0 -30.03 -72.73 -119.17 0 -30.02 72.73 -78.36 0 129.49 -312.93zm339.67 184.37l89.14 0 -44.57 -109.31 -44.57 109.31zm6.1 -184.37l76.47 0 129.49 312.93 -77.88 0 -30.02 -72.73 -119.18 0 -30.02 72.73 -78.35 0 129.49 -312.93zm-410.27 750.79l-108.84 0c-13.45,0 -25.33,-0.55 -35.66,-1.65 -10.32,-1.09 -19.55,-2.8 -27.68,-5.15 -8.13,-2.35 -15.55,-5.47 -22.13,-9.38 -6.64,-3.92 -12.9,-8.85 -18.93,-14.78 -13.52,-13.14 -23.84,-30.18 -30.88,-51.14 -7.11,-20.95 -10.62,-45.51 -10.62,-73.66 0,-35.35 5.93,-65.45 17.9,-90.32 11.95,-24.86 29.16,-42.45 51.52,-52.77 9.08,-4.39 20.73,-7.83 34.95,-10.32 14.24,-2.51 29.02,-3.76 44.34,-3.76l106.03 0 0 55.83 -98.05 0c-30.97,0 -53.17,8.45 -66.62,25.33 -5.32,6.26 -9.3,15.41 -11.97,27.46 -2.66,12.03 -3.99,26.19 -3.99,42.45 0,23.14 2.43,42.53 7.28,58.18 4.85,15.64 11.96,26.9 21.35,33.78 12.19,9.38 30.96,14.07 56.29,14.07l95.71 0 0 55.83zm237.86 -55.83l65.91 0c14.71,0 27.22,-1.72 37.7,-5.16 10.4,-3.44 18.45,-8.6 24.08,-15.48 6.57,-8.13 11.73,-19.4 15.64,-33.78 3.9,-14.39 5.87,-29.72 5.87,-45.98 0,-19.07 -2.59,-36.44 -7.75,-52.08 -5.08,-15.64 -12.04,-27.05 -20.8,-34.25 -6.25,-5.31 -13.52,-9.07 -21.97,-11.26 -8.45,-2.18 -19.31,-3.28 -32.77,-3.28l-65.91 0 0 201.27zm65.69 -257.1c32.21,0 58.17,3.36 77.88,10.08 19.7,6.73 35.65,17.76 47.85,33.09 4.7,5.62 8.91,12.58 12.67,20.87 3.74,8.29 7.04,17.44 9.85,27.44 2.82,10.02 4.93,20.58 6.34,31.67 1.4,11.1 2.1,22.45 2.1,34.02 0,13.76 -1.17,28.15 -3.51,43.17 -2.35,15.01 -5.55,28.29 -9.63,39.87 -5.94,17.51 -14.3,31.51 -25.09,41.99 -10.79,10.47 -24.63,18.38 -41.53,23.69 -4.38,1.57 -8.91,2.74 -13.6,3.52 -4.69,0.78 -9.93,1.49 -15.71,2.11 -5.79,0.63 -12.6,1.02 -20.42,1.17 -7.81,0.16 -16.88,0.24 -27.2,0.24l-132.76 0 0 -312.93 132.76 0z"/>
 </g>
</svg>
